<?xml version="1.0" encoding="UTF-8" standalone="no"?>
<svg
   xmlns="http://www.w3.org/2000/svg"
   viewBox="0 -256 1792 1792"
   version="1.1"
   width="100%"
   height="100%">
  <g transform="matrix(1,0,0,-1,68.338983,1247.4576)">
    <path fill="rgb(80, 80, 80)"
       d="M 1664,480 V -96 q 0,-13 -9.5,-22.5 -9.5,-9.5 -22.5,-9.5 H 32 q -13,0 -22.5,9.5 Q 0,-109 0,-96 V 480 Q 0,493 9.5,502.5 19,512 32,512 h 192 q 13,0 22.5,-9.5 Q 256,493 256,480 V 128 h 1152 v 352 q 0,13 9.5,22.5 9.5,9.5 22.5,9.5 h 192 q 13,0 22.5,-9.5 9.5,-9.5 9.5,-22.5 z m -320,352 q 0,-26 -19,-45 -19,-19 -45,-19 H 1024 V 320 q 0,-26 -19,-45 -19,-19 -45,-19 H 704 q -26,0 -45,19 -19,19 -19,45 V 768 H 384 q -26,0 -45,19 -19,19 -19,45 0,26 19,45 l 448,448 q 19,19 45,19 26,0 45,-19 l 448,-448 q 19,-19 19,-45 z"/>
  </g>
</svg>
